<svg xmlns="http://www.w3.org/2000/svg" width="16" height="15" viewBox="0 0 16 15"><g><g><path fill="#fff" d="M1.13 4.837h13.74v9.03H1.13zm2.33-2.628v.307c0 .322.247.573.564.573a.563.563 0 0 0 .565-.573V2.21h6.918v.307c0 .322.248.573.565.573a.563.563 0 0 0 .565-.573V2.21h2.247V3.69H1.13V2.209zM.564 15h14.87a.563.563 0 0 0 .565-.573V1.636a.563.563 0 0 0-.565-.574h-2.798V.573A.563.563 0 0 0 12.072 0a.563.563 0 0 0-.565.573v.49H4.59v-.49A.563.563 0 0 0 4.024 0a.563.563 0 0 0-.565.573v.49H.565A.563.563 0 0 0 0 1.635V14.44c0 .307.262.559.565.559z"/></g><g><path fill="#fff" d="M11.45 7h-7.9C3.24 7 3 7.22 3 7.5s.241.5.55.5h7.9c.309 0 .55-.22.55-.5s-.241-.5-.55-.5z"/></g><g><path fill="#fff" d="M7.456 10H3.544c-.305 0-.544.22-.544.5s.239.5.544.5h3.912c.305 0 .544-.22.544-.5s-.239-.5-.544-.5z"/></g></g></svg>