<svg xmlns="http://www.w3.org/2000/svg" width="14" height="14" viewBox="0 0 14 14"><g><g><path fill="#079fc2" d="M1.273 11.864V9.5h11.464v2.364zm4.194-7.818l-1.281 1.28a.636.636 0 1 0 .9.9l1.919-1.917 1.918 1.917a.635.635 0 0 0 .901 0 .636.636 0 0 0 0-.9l-1.281-1.28h4.194v4.181H1.273V4.046zM3.122 2.554a.751.751 0 0 1 1.061-1.061l1.28 1.28H3.653a.744.744 0 0 1-.53-.22zm6.695-1.061a.745.745 0 0 1 .53-.22c.2 0 .39.078.53.22a.745.745 0 0 1-.53 1.28H8.537zm3.547 1.28h-1.137a2.02 2.02 0 0 0 .143-.75c0-.54-.21-1.048-.592-1.43A2.01 2.01 0 0 0 10.348 0c-.541 0-1.05.21-1.431.593L7 2.509 5.083.593A2.01 2.01 0 0 0 3.653 0a2.026 2.026 0 0 0-1.879 2.773H.636A.636.636 0 0 0 0 3.409V12.5c0 .352.285.637.636.637h12.728A.636.636 0 0 0 14 12.5V3.41a.636.636 0 0 0-.636-.637z"/></g></g></svg>