<svg xmlns="http://www.w3.org/2000/svg" width="15" height="20" viewBox="0 0 15 20"><g><g><g><path fill="#079fc2" d="M7.103 0c3.921-.007 7.118 3.18 7.125 7.101a7.026 7.026 0 0 1-.385 2.321 7.154 7.154 0 0 1-2.07 3.065 4.98 4.98 0 0 0-1.958 3.279l-.002.035a.246.246 0 0 1-.16.173v.002h-.002a9.1 9.1 0 0 1-2.522.354 9.252 9.252 0 0 1-2.52-.347l-.017-.004-.009-.002a.238.238 0 0 1-.154-.2h-.002a4.976 4.976 0 0 0-1.766-3.123A7.14 7.14 0 0 1 .394 9.446 7.113 7.113 0 0 1 0 7.124C-.004 3.202 3.181.007 7.103 0m2.99 11.11a4.965 4.965 0 0 0 2.001-4.001 4.985 4.985 0 0 0-4.987-4.976 4.988 4.988 0 0 0-4.974 4.992 4.986 4.986 0 0 0 1.821 3.84v.002a7.19 7.19 0 0 1 2.268 3.213 6.95 6.95 0 0 0 1.797-.001 7.111 7.111 0 0 1 2.074-3.07"/></g><g><path fill="#079fc2" d="M9.54 6.3a.853.853 0 0 1 .856.837v.066a3.29 3.29 0 0 1-3.278 3.191A3.288 3.288 0 0 1 3.83 7.167a.853.853 0 0 1 1.706-.021v.017a1.577 1.577 0 1 0 3.151.026v-.002c.002-.025.002-.053.002-.078V7.09c.035-.441.4-.79.851-.79m.15 10.464c.046 0 .083.037.085.081v.004c0 .002 0 .004-.002.007a2.655 2.655 0 0 1-3.684 2.34 2.656 2.656 0 0 1-1.616-2.325v-.001c-.002-.01-.002-.02-.002-.03a.087.087 0 0 1 .085-.074l.016.002c.005 0 .01.003.011.003a9.77 9.77 0 0 0 2.553.325 10.101 10.101 0 0 0 2.531-.328l.006-.002c.004-.002.011-.002.018-.002"/></g></g></g></svg>