<svg xmlns="http://www.w3.org/2000/svg" width="18" height="13" viewBox="0 0 18 13"><g><g><path fill="#079fc2" d="M13.67 2.154a.527.527 0 0 0-.745.746 4.12 4.12 0 0 1 1.217 2.933 4.12 4.12 0 0 1-1.217 2.933.527.527 0 1 0 .745.746 5.168 5.168 0 0 0 1.526-3.679 5.168 5.168 0 0 0-1.526-3.679z"/></g><g><path fill="#079fc2" d="M15.65.164a.527.527 0 0 0-.746.746 6.91 6.91 0 0 1 2.037 4.917 6.91 6.91 0 0 1-2.037 4.917.527.527 0 0 0 .746.746 7.957 7.957 0 0 0 2.346-5.663c0-2.139-.833-4.15-2.346-5.663z"/></g><g><path fill="#079fc2" d="M9.499 6.73V4.904a1.057 1.057 0 0 1 0 1.824zm-4.57.695a.526.526 0 0 0-.197-.038H1.055v-3.15h3.677a.527.527 0 0 0 .197-.038l3.515-1.42v6.066zM2.52 10V8.442h.697zM9.5 3.775V1.997a.527.527 0 0 0-.726-.489L4.63 3.182H.527A.527.527 0 0 0 0 3.71v4.204c0 .292.236.528.527.528h.938v4.027a.527.527 0 0 0 1.01.216l1.898-4.243h.257l4.144 1.674a.527.527 0 0 0 .725-.49V7.85a2.108 2.108 0 0 0 1.577-2.037c0-.978-.671-1.803-1.577-2.037z"/></g></g></svg>