<svg xmlns="http://www.w3.org/2000/svg" width="17" height="15" viewBox="0 0 17 15"><g><g><g><path fill="#079fc2" d="M1.771 4.842h13.645v8.844H1.77zM4.082 2.27v.3c0 .315.247.561.561.561.315 0 .56-.246.56-.56V2.27h6.866v.3c0 .315.246.561.56.561.315 0 .561-.246.561-.56V2.27h2.23v1.45H1.77V2.27zM1.211 14.783h14.755c.315 0 .56-.246.56-.56V1.71a.555.555 0 0 0-.56-.56H13.19V.67a.555.555 0 0 0-.56-.56.555.555 0 0 0-.561.56v.48H5.204V.67a.555.555 0 0 0-.56-.56.555.555 0 0 0-.562.56v.48H1.211a.555.555 0 0 0-.561.56v12.527c0 .3.26.547.56.547z"/></g><g><path fill="#079fc2" d="M12.63 7.41H4.56a.555.555 0 0 0-.56.56c0 .315.246.561.56.561h8.07c.314 0 .56-.246.56-.56a.555.555 0 0 0-.56-.561z"/></g><g><path fill="#079fc2" d="M8.595 10.12H4.56a.555.555 0 0 0-.561.56c0 .315.246.561.56.561h4.035c.314 0 .56-.246.56-.56a.555.555 0 0 0-.56-.561z"/></g></g></g></svg>