<svg xmlns="http://www.w3.org/2000/svg" width="13" height="16" viewBox="0 0 13 16"><g><g><path fill="#74cfb7" d="M7.515 10.805c.391 0 1.146-.783 1.538-.825.388-.033.775.088 1.076.336l1.035.838.629.518c.453.37.527 1.034.167 1.496l-1.174 1.65a.42.42 0 0 1-.377.18A10.54 10.54 0 0 1 1 4.43a10.89 10.89 0 0 1 .378-2.866.266.266 0 0 1 .196-.181l2.222-.364A1.02 1.02 0 0 1 5 1.844l.195.839.252 1.398c.074.395 0 .803-.21 1.146-.21.35-1.202.7-1.398 1.035a7.885 7.885 0 0 0 3.649 4.683v-.14z"/><path fill="none" stroke="#fff" stroke-miterlimit="50" d="M7.515 10.805c.391 0 1.146-.783 1.538-.825.388-.033.775.088 1.076.336l1.035.838v0l.629.518c.453.37.527 1.034.167 1.496l-1.174 1.65a.42.42 0 0 1-.377.18A10.54 10.54 0 0 1 1 4.43a10.89 10.89 0 0 1 .378-2.866.266.266 0 0 1 .196-.181l2.222-.364A1.02 1.02 0 0 1 5 1.844l.195.839v0l.252 1.398c.074.395 0 .803-.21 1.146-.21.35-1.202.7-1.398 1.035v0a7.885 7.885 0 0 0 3.649 4.683v-.14 0z"/></g></g></svg>