<svg xmlns="http://www.w3.org/2000/svg" width="15" height="14" viewBox="0 0 15 14"><g><g><g><path fill="#079fc2" d="M14.382.193a.657.657 0 0 0-.929 0L.773 12.873a.657.657 0 1 0 .929.93l12.68-12.681a.657.657 0 0 0 0-.93z"/></g><g><path fill="#079fc2" d="M3.706 4.948c-.999 0-1.812-.813-1.812-1.812 0-.999.813-1.812 1.812-1.812 1 0 1.812.813 1.812 1.812 0 1-.813 1.812-1.812 1.812zM3.701.01C1.981.01.58 1.41.58 3.131s1.4 3.121 3.121 3.121 3.121-1.4 3.121-3.12c0-1.722-1.4-3.122-3.12-3.122z"/></g><g><path fill="#079fc2" d="M11.456 12.686c-.998 0-1.81-.812-1.81-1.81s.812-1.81 1.81-1.81 1.81.812 1.81 1.81-.812 1.81-1.81 1.81zm-.005-4.936c-1.72 0-3.121 1.4-3.121 3.121s1.4 3.121 3.121 3.121 3.121-1.4 3.121-3.12c0-1.722-1.4-3.122-3.12-3.122z"/></g></g></g></svg>