<svg xmlns="http://www.w3.org/2000/svg" width="19" height="18" viewBox="0 0 19 18"><g><g><g><path fill="#079fc2" d="M9.62 16.875c-4.341 0-7.875-3.533-7.875-7.875 0-4.343 3.534-7.875 7.875-7.875S17.495 4.658 17.495 9c0 4.343-3.534 7.875-7.875 7.875zM9.62 0c-4.962 0-9 4.038-9 9s4.038 9 9 9 9-4.038 9-9-4.038-9-9-9z"/></g><g><path fill="#079fc2" d="M11.858 7.875H9.615v-2.25h2.243a1.124 1.124 0 0 1 0 2.25zm.007-3.375H9.052a.563.563 0 0 0-.562.563v5.062H6.802a.563.563 0 0 0 0 1.125H8.49v1.688a.563.563 0 0 0 1.125 0V11.25h1.688a.563.563 0 0 0 0-1.125H9.614V9h2.25c1.24 0 2.25-1.01 2.25-2.25s-1.01-2.25-2.25-2.25z"/></g></g></g></svg>