<svg xmlns="http://www.w3.org/2000/svg" width="14" height="14" viewBox="0 0 14 14"><g><g><path fill="#74cfb7" d="M5.964 10.457A4.263 4.263 0 0 1 2.906 9.17c-1.686-1.714-1.686-4.502 0-6.216a4.262 4.262 0 0 1 3.058-1.287c1.156 0 2.242.457 3.059 1.287 1.686 1.714 1.686 4.502 0 6.216a4.263 4.263 0 0 1-3.059 1.287zm7.796 2.12l-2.886-2.932c-.02-.021-.044-.037-.067-.056 1.674-2.368 1.47-5.684-.625-7.814a5.897 5.897 0 0 0-8.435 0c-2.33 2.368-2.33 6.206 0 8.573a5.886 5.886 0 0 0 7.943.445c.009.01.015.02.025.03l2.885 2.932a.809.809 0 0 0 1.16.001.843.843 0 0 0 0-1.179z"/></g></g></svg>